<svg xmlns="http://www.w3.org/2000/svg" viewBox="310 670 1380 660" fill="#1a73e8">
<g transform="translate(0,2000) scale(0.1,-0.1)">
<path d="M5980 12880 c-247 -37 -525 -114 -740 -205 -305 -128 -622 -340 -873
-584 -470 -457 -755 -1021 -854 -1686 -25 -169 -25 -637 1 -810 27 -187 62
-333 132 -542 163 -494 443 -907 864 -1274 355 -310 821 -534 1300 -628 215
-42 269 -46 575 -46 335 0 426 10 660 70 474 123 857 323 1220 636 211 182
418 430 565 678 219 369 341 719 402 1156 17 121 17 569 0 705 -34 269 -112
566 -209 790 -219 507 -503 867 -948 1202 -374 281 -821 465 -1308 538 -183
27 -602 27 -787 0z m588 -1121 c170 -18 421 -94 583 -175 264 -132 542 -393
690 -646 381 -653 338 -1455 -110 -2035 -191 -248 -467 -456 -734 -554 -483
-177 -972 -153 -1407 69 -400 204 -707 555 -852 972 -47 137 -75 266 -94 439
-17 155 -17 170 -1 334 25 253 73 429 172 633 85 176 182 311 325 455 234 237
474 376 786 460 207 55 427 72 642 48z"/>
<path d="M13420 12889 c-118 -10 -170 -26 -187 -59 -10 -20 -13 -219 -13 -917
0 -607 -3 -893 -10 -893 -12 0 -274 151 -805 465 -137 81 -315 186 -395 233
-80 47 -186 109 -235 138 -121 72 -138 71 -205 -3 -101 -113 -287 -419 -411
-679 -72 -149 -89 -207 -70 -243 6 -11 76 -58 154 -105 575 -339 993 -586
1112 -658 77 -46 165 -99 196 -116 81 -46 88 -57 47 -78 -18 -9 -109 -63 -203
-119 -93 -56 -330 -195 -525 -310 -195 -114 -375 -220 -400 -235 -25 -15 -112
-67 -195 -115 -195 -114 -188 -107 -183 -175 10 -126 312 -684 475 -877 68
-81 64 -82 396 114 155 91 406 239 558 328 151 89 331 196 400 237 157 94 272
158 287 158 9 0 12 -223 12 -903 l0 -904 23 -21 c12 -11 42 -26 67 -32 67 -16
678 -25 842 -11 150 12 202 27 214 63 5 12 8 423 9 913 0 787 2 890 15 893 8
1 96 -46 195 -104 99 -59 248 -147 330 -194 83 -48 233 -136 335 -197 102 -60
264 -156 360 -213 96 -56 199 -118 228 -137 71 -46 97 -54 126 -43 59 22 287
369 424 645 110 222 134 292 116 339 -7 17 -185 127 -669 411 -176 103 -381
224 -455 268 -74 44 -193 114 -265 156 -71 42 -131 83 -133 91 -3 16 29 36
623 385 176 103 424 250 550 325 127 75 250 148 275 162 111 64 109 90 -32
368 -145 287 -362 630 -418 660 -27 14 -62 12 -87 -5 -11 -8 -70 -42 -129 -76
-60 -34 -156 -90 -214 -124 -58 -34 -172 -103 -255 -152 -315 -187 -906 -525
-911 -521 -3 3 -7 407 -10 898 -3 570 -9 900 -15 912 -27 49 -184 68 -551 67
-161 -1 -336 -5 -388 -10z"/>
</g>
</svg>